<svg width="32" height="32" viewBox="0 0 32 32" fill="none" xmlns="http://www.w3.org/2000/svg">
<rect width="32" height="32" fill="#F5F5F5"/>
<circle cx="16" cy="16" r="16" fill="#EDCB5D"/>
<circle cx="16" cy="16" r="15.5" stroke="white"/>
<path d="M14.9285 9.42845C14.7399 9.56988 14.1713 9.85488 13.2685 10.3177C12.4064 10.7597 11.7885 11.6142 11.3246 12.4699C10.9847 13.0968 10.9999 13.5935 11.0353 13.9024C11.0674 14.183 11.3556 14.6392 11.676 15.3635C12.0174 16.1353 12.5921 16.8299 13.1978 17.4124C13.7141 17.9089 14.3778 18.0942 15.0778 18.2842C15.4687 18.3903 15.9428 18.4742 16.6453 18.7231C18.292 19.3066 19.4499 19.927 19.8778 20.2002C20.513 20.6059 20.8313 21.3056 20.9878 22.0092C21.0677 22.3685 20.8113 23.0427 20.5021 23.7924C20.3544 24.1503 20.0263 24.4263 19.2799 24.842C18.8187 25.0989 18.0856 25.2342 17.2028 25.3195C16.3199 25.4049 15.2828 25.3813 14.6424 25.322C13.416 25.2085 13.1199 24.857 12.9653 24.8099C12.9049 24.7627 12.8813 24.6685 12.8338 24.6081C12.7863 24.5477 12.7156 24.5242 12.6428 24.4999" stroke="#1D1D1D" stroke-width="2" stroke-linecap="round"/>
</svg>
