<svg width="32" height="32" viewBox="0 0 32 32" fill="none" xmlns="http://www.w3.org/2000/svg">
<path d="M32 16C32 24.8366 24.8366 32 16 32C7.16344 32 0 24.8366 0 16C0 7.16344 7.16344 0 16 0C24.8366 0 32 7.16344 32 16Z" fill="#ABFB65"/>
<path d="M12 6L14.5981 12.75H9.40192L12 6Z" fill="white"/>
<path d="M12 10L18.0622 24.25H5.93782L12 10Z" fill="white"/>
<path d="M11 24H13V28H11V24Z" fill="white"/>
<path d="M12 9L16.3301 18H7.66987L12 9Z" fill="white"/>
<path d="M12 10L18.0622 24.25H5.93782L12 10Z" fill="white"/>
<path d="M22 5L23.7321 9.5H20.268L22 5Z" fill="white"/>
<path d="M22 8L25.4641 14H18.5359L22 8Z" fill="white"/>
<path d="M22 9L26.3301 18H17.6699L22 9Z" fill="white"/>
<path d="M11 24H13V28H11V24Z" fill="white"/>
<path d="M21 18H23V21H21V18Z" fill="white"/>
</svg>
