<svg width="32" height="32" viewBox="0 0 32 32" fill="none" xmlns="http://www.w3.org/2000/svg">
  <g clip-path="url(#clip0_1_2392)">
    <circle cx="16" cy="16" r="16" fill="#4CAF10"/>
    <path d="M12 6L14.5981 12.75H9.40192L12 6Z" fill="white"/>
    <path d="M12 10L18.0622 24.25H5.93782L12 10Z" fill="white"/>
    <rect x="11" y="24" width="2" height="4" fill="white"/>
    <path d="M12 9L16.3301 18H7.66987L12 9Z" fill="white"/>
    <path d="M12 10L18.0622 24.25H5.93782L12 10Z" fill="white"/>
    <path d="M22 5L23.7321 9.5H20.2679L22 5Z" fill="white"/>
    <path d="M22 8L25.4641 14H18.5359L22 8Z" fill="white"/>
    <path d="M22 9L26.3301 18H17.6699L22 9Z" fill="white"/>
    <rect x="11" y="24" width="2" height="4" fill="white"/>
    <rect x="21" y="18" width="2" height="3" fill="white"/>
    <circle cx="16" cy="16" r="15.5" stroke="white"/>
  </g>
  <defs>
    <clipPath id="clip0_1_2392">
      <rect width="32" height="32"/>
    </clipPath>
  </defs>
</svg>
